<?xml version="1.0" encoding="UTF-8" standalone="no"?>
<!-- Created with Inkscape (http://www.inkscape.org/) -->

<svg
   xmlns:dc="http://purl.org/dc/elements/1.1/"
   xmlns:cc="http://creativecommons.org/ns#"
   xmlns:rdf="http://www.w3.org/1999/02/22-rdf-syntax-ns#"
   xmlns:svg="http://www.w3.org/2000/svg"
   xmlns="http://www.w3.org/2000/svg"
   xmlns:sodipodi="http://sodipodi.sourceforge.net/DTD/sodipodi-0.dtd"
   xmlns:inkscape="http://www.inkscape.org/namespaces/inkscape"
   width="55.736294"
   height="52.756973"
   id="svg3576"
   version="1.1"
   inkscape:version="0.48.4 r9939"
   sodipodi:docname="logo.svg">
  <defs
     id="defs3578" />
  <sodipodi:namedview
     id="base"
     pagecolor="#ffffff"
     bordercolor="#666666"
     borderopacity="1.0"
     inkscape:pageopacity="0.0"
     inkscape:pageshadow="2"
     inkscape:zoom="1.979899"
     inkscape:cx="352.32035"
     inkscape:cy="-1.9356974"
     inkscape:document-units="px"
     inkscape:current-layer="layer1"
     showgrid="false"
     inkscape:window-width="1831"
     inkscape:window-height="1047"
     inkscape:window-x="89"
     inkscape:window-y="33"
     inkscape:window-maximized="1"
     fit-margin-top="0"
     fit-margin-left="0"
     fit-margin-right="0"
     fit-margin-bottom="0" />
  <metadata
     id="metadata3581">
    <rdf:RDF>
      <cc:Work
         rdf:about="">
        <dc:format>image/svg+xml</dc:format>
        <dc:type
           rdf:resource="http://purl.org/dc/dcmitype/StillImage" />
        <dc:title></dc:title>
      </cc:Work>
    </rdf:RDF>
  </metadata>
  <g
     inkscape:label="Calque 1"
     inkscape:groupmode="layer"
     id="layer1"
     transform="translate(-178.12249,-108.84084)">
    <g
       id="g3512"
       transform="translate(-2179.3965,-339.32166)">
      <ellipse
         transform="translate(279.06044,-23.149469)"
         ry="14.071609"
         rx="13.981712"
         cy="502.93652"
         cx="2120.2131"
         id="path5273-3-9-4-8-5-5-9-8-7-6-6"
         style="fill:#3498db;fill-opacity:1;stroke:none"
         d="m 2134.1948,502.93652 c 0,7.77154 -6.2598,14.07161 -13.9817,14.07161 -7.7219,0 -13.9817,-6.30007 -13.9817,-14.07161 0,-7.77153 6.2598,-14.07161 13.9817,-14.07161 7.7219,0 13.9817,6.30008 13.9817,14.07161 z"
         sodipodi:cx="2120.2131"
         sodipodi:cy="502.93652"
         sodipodi:rx="13.981712"
         sodipodi:ry="14.071609" />
      <g
         transform="matrix(0.54657336,0,0,0.54657336,1489.5371,204.64616)"
         id="g4851-6-2-4">
        <ellipse
           style="fill:#3498db;fill-opacity:1;stroke:none"
           id="path5273-3-9-4-8-5-5-9-8-7-5"
           cx="1619.0024"
           cy="510.89722"
           rx="30.959631"
           ry="31.158688"
           d="m 1649.9621,510.89722 c 0,17.20846 -13.8611,31.15868 -30.9597,31.15868 -17.0985,0 -30.9596,-13.95022 -30.9596,-31.15868 0,-17.20847 13.8611,-31.15869 30.9596,-31.15869 17.0986,0 30.9597,13.95022 30.9597,31.15869 z"
           sodipodi:cx="1619.0024"
           sodipodi:cy="510.89722"
           sodipodi:rx="30.959631"
           sodipodi:ry="31.158688" />
        <path
           inkscape:connector-curvature="0"
           style="fill:#ffffff;fill-opacity:1;stroke:none"
           d="m 1611.7209,504.66861 c -0.1409,0.008 -0.5984,0.38064 -0.5984,0.38064 0.2462,0.1004 0.7401,-0.38888 0.5984,-0.38064 z m 0.062,-0.0764 -0.037,0.021 c 0.013,-0.005 0.024,-0.009 0.036,-0.0135 0,-0.003 0,-0.005 0,-0.008 z m 16.9453,-16.66793 c 2.5383,0 4.5961,1.94815 4.5961,4.35112 0,2.40296 -2.0578,4.35112 -4.5961,4.35112 -2.5382,0 -4.596,-1.94816 -4.596,-4.35112 0,-2.40297 2.0578,-4.35112 4.596,-4.35112 z m -27.5905,18.65503 1.2315,0 0,-0.56047 -1.2315,0 c -0.3356,0 -0.5778,-0.0629 -0.6664,-0.17233 -0.067,-0.0839 -0.038,-0.19332 -0.038,-0.19332 l 0.015,-3.38378 -0.592,0 0,3.26465 c -0.026,0.11389 -0.059,0.38738 0.1353,0.63914 0.2074,0.26899 0.5944,0.40611 1.1461,0.40611 z m 38.9283,7.95146 -0.1669,-1.28279 c -0.6601,-5.01124 -0.6862,-5.20231 -0.4314,-14.03342 0.01,-0.30946 -0.2469,-0.56646 -0.5762,-0.57545 -0.3103,-0.0195 -0.5983,0.23527 -0.6087,0.54473 -0.2564,8.91353 -0.2287,9.11209 0.4409,14.20051 l 0.1678,1.28503 c 0.1718,1.23108 0.02,2.08377 -0.4218,2.41196 -0.5153,0.37615 -1.4168,0.042 -1.4785,0.018 -4.3539,-1.2678 -9.7778,1.35171 -10.0073,1.46036 -0.2905,0.14086 -0.4045,0.48029 -0.2541,0.75528 0.1053,0.19257 0.3126,0.30046 0.5263,0.30046 0.091,0 0.1829,-0.018 0.2715,-0.0629 0.035,-0.0157 2.4567,-1.18089 5.2047,-1.57052 l 0,8.72547 -2.4591,0 c -0.501,0 -0.907,0.38364 -0.907,0.85794 0,0.4728 0.406,0.85793 0.907,0.85793 l 6.9855,0 c 0.501,0 0.907,-0.38513 0.907,-0.85793 0,-0.4743 -0.4068,-0.85794 -0.907,-0.85794 l -2.2659,0 0,-8.81987 c 0.5453,0.0352 1.0835,0.11539 1.5995,0.26524 0.063,0.024 1.5315,0.59494 2.5968,-0.17983 0.816,-0.59343 1.1128,-1.75408 0.8769,-3.44223 z m -2.8144,-2.54384 c -0.1021,-3.68575 -1.378,-7.22014 -1.4785,-10.89016 -0.148,-5.34542 -8.8003,-5.46681 -8.87,-0.2525 -3.3115,0.53349 -6.619,0.81672 -9.9859,0.66686 -3.0559,-0.13562 -3.0654,4.34587 -0.031,4.47999 3.5362,0.1566 7.044,-0.1611 10.5273,-0.70207 0.3577,1.96163 0.7811,3.91352 0.9157,5.89764 -7.2055,2.38274 -11.1993,8.15601 -12.2187,15.49304 -0.01,0.0502 -0.01,0.10415 -0.014,0.1566 l 0,-16.24457 4.5439,0 0,-3.84011 -16.2964,0 c 0.01,-0.0487 0.014,-0.10565 0.016,-0.17609 0,-0.042 0.01,-0.0884 0.01,-0.14086 0.02,-0.32444 0.081,-0.43534 0.4164,-0.49678 0.085,-0.015 0.1915,-0.0195 0.2991,-0.018 l 0,0.26975 4.3737,0 c 0.1274,0.0225 0.2541,0.0397 0.372,0.0397 0.1836,0 0.3419,-0.0397 0.4353,-0.15885 0.049,-0.0622 0.049,-0.14835 0.048,-0.23153 0,-0.0802 0,-0.16259 0.041,-0.2113 0.063,-0.0727 0.1852,-0.12138 0.2714,-0.12887 -0.091,0.16634 -0.1479,0.34317 -0.1479,0.5305 l 4.9538,0 c 0,-0.90215 -1.1097,-1.63345 -2.4765,-1.63345 -0.4274,0 -0.8208,0.0772 -1.1706,0.2023 0.082,0.77252 -0.6862,0.6976 -0.983,0.64065 -0.035,0.0412 -0.065,0.0847 -0.095,0.12813 -0.014,-0.003 -0.024,-0.0105 -0.04,-0.0112 -0.1321,-0.006 -0.3229,0.0697 -0.4234,0.18507 -0.075,0.0869 -0.074,0.19931 -0.074,0.29822 0,0.0607 0,0.12363 -0.019,0.14835 -0.052,0.0667 -0.1551,0.0884 -0.273,0.0944 l 0,-0.64589 -4.7923,0 0,0.34242 c -0.1275,-5.6e-4 -0.2462,0.01 -0.3269,0.0248 -0.4251,0.0772 -0.5105,0.26225 -0.5335,0.62191 -0.01,0.054 -0.01,0.1019 -0.01,0.14386 -0.01,0.0817 -0.01,0.13862 -0.018,0.18208 l -8.9997,0 0,3.8401 2.4733,0 0,18.62582 18.4238,0 0,-1.86498 c 0.3,2.86978 5.4738,2.60752 5.9297,-0.67736 0.7883,-5.67586 4.285,-9.46576 10.164,-10.72007 2.4441,0.35217 5.1437,-0.96284 5.0614,-3.96748 z m -35.3692,-17.87802 0.7448,10.0532 -1.9668,0.13038 -0.7448,-10.05246 1.9668,-0.13112 z"
           id="path5-2-9-8-5-6-01-1-4-8-5-6"
           inkscape:export-xdpi="1555"
           inkscape:export-ydpi="1555" />
      </g>
      <g
         transform="matrix(0.39639671,0,0,0.39639671,1744.6588,257.99573)"
         id="g4851-1-3-5-9-5">
        <ellipse
           style="fill:#3498db;fill-opacity:1;stroke:none"
           id="path5273-3-9-4-8-5-5-9-6-9-4-1-1"
           cx="1619.0024"
           cy="510.89722"
           rx="30.959631"
           ry="31.158688"
           d="m 1649.9621,510.89722 c 0,17.20846 -13.8611,31.15868 -30.9597,31.15868 -17.0985,0 -30.9596,-13.95022 -30.9596,-31.15868 0,-17.20847 13.8611,-31.15869 30.9596,-31.15869 17.0986,0 30.9597,13.95022 30.9597,31.15869 z"
           sodipodi:cx="1619.0024"
           sodipodi:cy="510.89722"
           sodipodi:rx="30.959631"
           sodipodi:ry="31.158688" />
        <path
           inkscape:connector-curvature="0"
           style="fill:#ffffff;fill-opacity:1;stroke:none"
           d="m 1611.7209,504.66861 c -0.1409,0.008 -0.5984,0.38064 -0.5984,0.38064 0.2462,0.1004 0.7401,-0.38888 0.5984,-0.38064 z m 0.062,-0.0764 -0.037,0.021 c 0.013,-0.005 0.024,-0.009 0.036,-0.0135 0,-0.003 0,-0.005 0,-0.008 z m 16.9453,-16.66793 c 2.5383,0 4.5961,1.94815 4.5961,4.35112 0,2.40296 -2.0578,4.35112 -4.5961,4.35112 -2.5382,0 -4.596,-1.94816 -4.596,-4.35112 0,-2.40297 2.0578,-4.35112 4.596,-4.35112 z m -27.5905,18.65503 1.2315,0 0,-0.56047 -1.2315,0 c -0.3356,0 -0.5778,-0.0629 -0.6664,-0.17233 -0.067,-0.0839 -0.038,-0.19332 -0.038,-0.19332 l 0.015,-3.38378 -0.592,0 0,3.26465 c -0.026,0.11389 -0.059,0.38738 0.1353,0.63914 0.2074,0.26899 0.5944,0.40611 1.1461,0.40611 z m 38.9283,7.95146 -0.1669,-1.28279 c -0.6601,-5.01124 -0.6862,-5.20231 -0.4314,-14.03342 0.01,-0.30946 -0.2469,-0.56646 -0.5762,-0.57545 -0.3103,-0.0195 -0.5983,0.23527 -0.6087,0.54473 -0.2564,8.91353 -0.2287,9.11209 0.4409,14.20051 l 0.1678,1.28503 c 0.1718,1.23108 0.02,2.08377 -0.4218,2.41196 -0.5153,0.37615 -1.4168,0.042 -1.4785,0.018 -4.3539,-1.2678 -9.7778,1.35171 -10.0073,1.46036 -0.2905,0.14086 -0.4045,0.48029 -0.2541,0.75528 0.1053,0.19257 0.3126,0.30046 0.5263,0.30046 0.091,0 0.1829,-0.018 0.2715,-0.0629 0.035,-0.0157 2.4567,-1.18089 5.2047,-1.57052 l 0,8.72547 -2.4591,0 c -0.501,0 -0.907,0.38364 -0.907,0.85794 0,0.4728 0.406,0.85793 0.907,0.85793 l 6.9855,0 c 0.501,0 0.907,-0.38513 0.907,-0.85793 0,-0.4743 -0.4068,-0.85794 -0.907,-0.85794 l -2.2659,0 0,-8.81987 c 0.5453,0.0352 1.0835,0.11539 1.5995,0.26524 0.063,0.024 1.5315,0.59494 2.5968,-0.17983 0.816,-0.59343 1.1128,-1.75408 0.8769,-3.44223 z m -2.8144,-2.54384 c -0.1021,-3.68575 -1.378,-7.22014 -1.4785,-10.89016 -0.148,-5.34542 -8.8003,-5.46681 -8.87,-0.2525 -3.3115,0.53349 -6.619,0.81672 -9.9859,0.66686 -3.0559,-0.13562 -3.0654,4.34587 -0.031,4.47999 3.5362,0.1566 7.044,-0.1611 10.5273,-0.70207 0.3577,1.96163 0.7811,3.91352 0.9157,5.89764 -7.2055,2.38274 -11.1993,8.15601 -12.2187,15.49304 -0.01,0.0502 -0.01,0.10415 -0.014,0.1566 l 0,-16.24457 4.5439,0 0,-3.84011 -16.2964,0 c 0.01,-0.0487 0.014,-0.10565 0.016,-0.17609 0,-0.042 0.01,-0.0884 0.01,-0.14086 0.02,-0.32444 0.081,-0.43534 0.4164,-0.49678 0.085,-0.015 0.1915,-0.0195 0.2991,-0.018 l 0,0.26975 4.3737,0 c 0.1274,0.0225 0.2541,0.0397 0.372,0.0397 0.1836,0 0.3419,-0.0397 0.4353,-0.15885 0.049,-0.0622 0.049,-0.14835 0.048,-0.23153 0,-0.0802 0,-0.16259 0.041,-0.2113 0.063,-0.0727 0.1852,-0.12138 0.2714,-0.12887 -0.091,0.16634 -0.1479,0.34317 -0.1479,0.5305 l 4.9538,0 c 0,-0.90215 -1.1097,-1.63345 -2.4765,-1.63345 -0.4274,0 -0.8208,0.0772 -1.1706,0.2023 0.082,0.77252 -0.6862,0.6976 -0.983,0.64065 -0.035,0.0412 -0.065,0.0847 -0.095,0.12813 -0.014,-0.003 -0.024,-0.0105 -0.04,-0.0112 -0.1321,-0.006 -0.3229,0.0697 -0.4234,0.18507 -0.075,0.0869 -0.074,0.19931 -0.074,0.29822 0,0.0607 0,0.12363 -0.019,0.14835 -0.052,0.0667 -0.1551,0.0884 -0.273,0.0944 l 0,-0.64589 -4.7923,0 0,0.34242 c -0.1275,-5.6e-4 -0.2462,0.01 -0.3269,0.0248 -0.4251,0.0772 -0.5105,0.26225 -0.5335,0.62191 -0.01,0.054 -0.01,0.1019 -0.01,0.14386 -0.01,0.0817 -0.01,0.13862 -0.018,0.18208 l -8.9997,0 0,3.8401 2.4733,0 0,18.62582 18.4238,0 0,-1.86498 c 0.3,2.86978 5.4738,2.60752 5.9297,-0.67736 0.7883,-5.67586 4.285,-9.46576 10.164,-10.72007 2.4441,0.35217 5.1437,-0.96284 5.0614,-3.96748 z m -35.3692,-17.87802 0.7448,10.0532 -1.9668,0.13038 -0.7448,-10.05246 1.9668,-0.13112 z"
           id="path5-2-9-8-5-6-01-1-4-0-7-1-6-5"
           inkscape:export-xdpi="1555"
           inkscape:export-ydpi="1555" />
      </g>
      <path
         inkscape:export-ydpi="1555"
         inkscape:export-xdpi="1555"
         id="path5-2-9-8-5-6-01-1-4-8-5-8-5"
         d="m 2395.985,476.97414 c -0.064,0.004 -0.2702,0.1719 -0.2702,0.1719 0.1112,0.0453 0.3342,-0.17562 0.2702,-0.1719 z m 0.028,-0.0345 -0.017,0.009 c 0.01,-0.002 0.011,-0.004 0.016,-0.006 0,-10e-4 0,-0.002 0,-0.004 z m 7.6527,-7.52742 c 1.1463,0 2.0757,0.8798 2.0757,1.96501 0,1.0852 -0.9294,1.96501 -2.0757,1.96501 -1.1463,0 -2.0756,-0.87981 -2.0756,-1.96501 0,-1.08521 0.9293,-1.96501 2.0756,-1.96501 z m -12.4602,8.42481 0.5562,0 0,-0.25311 -0.5562,0 c -0.1515,0 -0.2609,-0.0284 -0.3009,-0.0778 -0.03,-0.0379 -0.017,-0.0873 -0.017,-0.0873 l 0.01,-1.52815 -0.2674,0 0,1.47435 c -0.012,0.0514 -0.027,0.17494 0.061,0.28864 0.094,0.12148 0.2684,0.1834 0.5175,0.1834 z m 17.5805,3.59097 -0.075,-0.57932 c -0.2981,-2.26313 -0.3099,-2.34942 -0.1948,-6.33765 0,-0.13975 -0.1115,-0.25582 -0.2602,-0.25988 -0.1402,-0.009 -0.2702,0.10625 -0.2749,0.24601 -0.1158,4.02545 -0.1033,4.11512 0.1991,6.41311 l 0.076,0.58033 c 0.078,0.55597 0.01,0.94105 -0.1905,1.08927 -0.2327,0.16987 -0.6399,0.019 -0.6677,0.008 -1.9663,-0.57256 -4.4158,0.61044 -4.5194,0.65951 -0.1312,0.0636 -0.1827,0.21691 -0.1148,0.34109 0.048,0.087 0.1412,0.1357 0.2377,0.1357 0.041,0 0.083,-0.008 0.1226,-0.0284 0.016,-0.007 1.1095,-0.5333 2.3505,-0.70927 l 0,3.94052 -1.1105,0 c -0.2263,0 -0.4097,0.17326 -0.4097,0.38746 0,0.21352 0.1834,0.38745 0.4097,0.38745 l 3.1547,0 c 0.2262,0 0.4096,-0.17393 0.4096,-0.38745 0,-0.2142 -0.1837,-0.38746 -0.4096,-0.38746 l -1.0233,0 0,-3.98315 c 0.2462,0.0159 0.4893,0.0521 0.7223,0.11979 0.028,0.0108 0.6917,0.26868 1.1728,-0.0812 0.3685,-0.26799 0.5025,-0.79216 0.396,-1.55454 z m -1.271,-1.14882 c -0.046,-1.66453 -0.6223,-3.2607 -0.6677,-4.91812 -0.067,-2.41405 -3.9743,-2.46887 -4.0058,-0.11403 -1.4955,0.24093 -2.9892,0.36884 -4.5098,0.30116 -1.38,-0.0612 -1.3843,1.96264 -0.014,2.02321 1.597,0.0707 3.1812,-0.0727 4.7543,-0.31706 0.1615,0.88589 0.3527,1.76739 0.4135,2.66344 -3.2541,1.07607 -5.0577,3.68334 -5.5181,6.99683 0,0.0227 0,0.047 -0.01,0.0707 l 0,-7.33623 2.0521,0 0,-1.73423 -7.3597,0 c 0,-0.022 0.01,-0.0477 0.01,-0.0795 0,-0.019 0,-0.0399 0,-0.0636 0.01,-0.14652 0.037,-0.19661 0.188,-0.22435 0.038,-0.007 0.086,-0.009 0.1351,-0.008 l 0,0.12182 1.9752,0 c 0.058,0.0102 0.1148,0.0179 0.168,0.0179 0.083,0 0.1544,-0.0179 0.1966,-0.0717 0.022,-0.0281 0.022,-0.067 0.022,-0.10456 0,-0.0362 0,-0.0734 0.019,-0.0954 0.028,-0.0328 0.084,-0.0548 0.1226,-0.0582 -0.041,0.0751 -0.067,0.15498 -0.067,0.23958 l 2.2372,0 c 0,-0.40742 -0.5012,-0.73768 -1.1184,-0.73768 -0.1931,0 -0.3707,0.0349 -0.5287,0.0914 0.037,0.34888 -0.3099,0.31504 -0.4439,0.28932 -0.016,0.0186 -0.029,0.0383 -0.043,0.0579 -0.01,-0.001 -0.011,-0.005 -0.018,-0.005 -0.06,-0.003 -0.1458,0.0315 -0.1912,0.0836 -0.034,0.0392 -0.033,0.09 -0.033,0.13468 0,0.0274 0,0.0558 -0.01,0.067 -0.023,0.0301 -0.07,0.0399 -0.1233,0.0426 l 0,-0.29169 -2.1643,0 0,0.15464 c -0.057,-2.5e-4 -0.1111,0.005 -0.1476,0.0112 -0.192,0.0349 -0.2305,0.11843 -0.2409,0.28086 0,0.0244 0,0.046 0,0.065 0,0.0369 0,0.0626 -0.01,0.0822 l -4.0643,0 0,1.73423 1.1169,0 0,8.41163 8.3204,0 0,-0.84225 c 0.1355,1.29603 2.4721,1.17759 2.6779,-0.3059 0.356,-2.56328 1.9352,-4.27484 4.5902,-4.8413 1.1038,0.15904 2.323,-0.43483 2.2858,-1.79176 z m -15.9731,-8.07392 0.3363,4.54014 -0.8882,0.0589 -0.3364,-4.5398 0.8883,-0.0592 z"
         style="fill:#ffffff;fill-opacity:1;stroke:none"
         inkscape:connector-curvature="0" />
    </g>
  </g>
</svg>
